<svg width="1920" height="502" viewBox="0 0 1920 502" fill="none" xmlns="http://www.w3.org/2000/svg">
<path opacity="0.2" d="M-768 94.46V0H1920V94.46C1916.57 94.46 1913.17 94.5 1909.78 94.58C1857.05 93.67 1797.08 96.94 1734.78 109.77C1705.24 115.796 1676.17 123.916 1647.78 134.07C1548.4 169.759 1459.41 226.687 1370.7 283.438C1336.32 305.431 1301.98 327.397 1267.1 348.09C1144.79 420.64 1015.49 464.62 874.56 484.58C784.28 497.36 692.93 501.47 601.81 501.1C593.21 501.1 584.607 501.023 576 500.87C567.393 501.023 558.79 501.1 550.19 501.1C459.07 501.47 367.72 497.36 277.44 484.58C136.51 464.62 7.21002 420.64 -115.1 348.09C-149.984 327.397 -184.321 305.431 -218.7 283.438C-307.413 226.687 -396.402 169.759 -495.78 134.07C-524.167 123.916 -553.24 115.796 -582.78 109.77C-645.08 96.94 -705.05 93.67 -757.78 94.58C-761.167 94.5 -764.573 94.46 -768 94.46Z" fill="#7CD5E9"/>
</svg>
