<svg width="1920" height="404" viewBox="0 0 1920 404" fill="none" xmlns="http://www.w3.org/2000/svg">
<path opacity="0.2" d="M-519.211 292.089C-616.081 247.964 -713.891 203.411 -810 201.568V0H1920.3V201.568C1912.08 201.405 1903.85 201.568 1895.61 202.059C1870.97 203.703 1846.57 207.9 1822.79 214.585C1794.09 222.754 1766.11 233.26 1739.12 245.996C1730.1 250.143 1721.3 254.656 1712.44 259.199C1706.92 262.025 1701.39 264.863 1695.76 267.631C1681.1 274.849 1666.38 281.997 1651.67 289.004C1585.85 320.643 1454.28 383.868 1322.68 399.687C1191.08 415.506 1059.5 383.885 927.919 328.543C900.658 317.083 873.261 304.603 845.788 292.089C748.919 247.964 651.109 203.411 555 201.568V201.562C546.877 201.409 538.748 201.574 530.614 202.059C505.971 203.703 481.565 207.9 457.789 214.585C429.089 222.754 401.106 233.26 374.12 245.996C365.102 250.143 356.298 254.656 347.435 259.199C341.922 262.025 336.385 264.863 330.761 267.631C316.098 274.849 301.383 281.997 286.667 289.004C220.85 320.643 89.2844 383.868 -42.3154 399.687C-173.916 415.506 -305.498 383.885 -437.081 328.543C-464.342 317.083 -491.739 304.603 -519.211 292.089Z" fill="#7CD5E9"/>
</svg>
