<?xml version="1.0" encoding="utf-8"?>
<!-- Generator: Adobe Illustrator 16.0.0, SVG Export Plug-In . SVG Version: 6.00 Build 0)  -->
<!DOCTYPE svg PUBLIC "-//W3C//DTD SVG 1.1//EN" "http://www.w3.org/Graphics/SVG/1.1/DTD/svg11.dtd">
<svg version="1.1" id="Layer_1" xmlns="http://www.w3.org/2000/svg" xmlns:xlink="http://www.w3.org/1999/xlink" x="0px" y="0px"
	 width="1920px" height="502px" viewBox="0 0 1920 502" enable-background="new 0 0 1920 502" xml:space="preserve">
<path opacity="0.2" fill="#7CD5E9" enable-background="new    " d="M-768,94.46V0h2688v94.46c-3.43,0-6.83,0.04-10.22,0.12
	c-52.73-0.91-112.7,2.36-175,15.19c-29.54,6.026-58.61,14.146-87,24.3c-99.38,35.689-188.37,92.617-277.08,149.368
	c-34.38,21.994-68.72,43.959-103.601,64.652c-122.31,72.55-251.609,116.53-392.54,136.49c-90.279,12.78-181.63,16.89-272.75,16.52
	c-8.6,0-17.202-0.076-25.81-0.229c-8.607,0.153-17.21,0.229-25.81,0.229c-91.12,0.37-182.471-3.739-272.751-16.52
	C136.51,464.62,7.21,420.64-115.1,348.09c-34.884-20.693-69.221-42.658-103.6-64.652c-88.713-56.75-177.702-113.679-277.08-149.368
	c-28.387-10.154-57.46-18.274-87-24.3c-62.3-12.83-122.27-16.1-175-15.19C-761.167,94.5-764.573,94.46-768,94.46z"/>
</svg>
